<svg xmlns="http://www.w3.org/2000/svg" width="100.582" height="22.657" viewBox="0 0 100.582 22.657">
  <g id="Group_792" data-name="Group 792" transform="translate(-1 -1)">
    <path id="Path_570" data-name="Path 570" d="M94.443,99.218a1.637,1.637,0,0,1-2.481,1.382,1.5,1.5,0,0,1-.753-1.372C91.2,97.6,91.2,95.973,91.2,94.345q0-4.294,0-8.588c0-.139,0-.278,0-.483H94.46c0,.492,0,.95,0,1.407q0,3.481,0,6.963C94.46,95.489,94.453,97.335,94.443,99.218Z" transform="translate(-82.591 -77.168)" fill="#f55050"/>
    <path id="Path_571" data-name="Path 571" d="M8.8,33.961a13.329,13.329,0,0,1,5.951.732,9.294,9.294,0,0,1,4.526,3.617.953.953,0,0,1,.168.544.494.494,0,0,1-.812.338,9.173,9.173,0,0,0-3.883-1.624,22.756,22.756,0,0,0-6.869-.332,13.141,13.141,0,0,0-5.276,1.437,4.437,4.437,0,0,0-.629.42c-.252.2-.508.337-.79.1-.3-.255-.195-.552-.024-.833A8.474,8.474,0,0,1,3.771,35.7,11.064,11.064,0,0,1,8.8,33.961Z" transform="translate(0 -30.132)" fill="#f55050"/>
    <path id="Path_572" data-name="Path 572" d="M145.618,104.427a4.24,4.24,0,0,0-.209-5.19.615.615,0,0,1-.173-.351c-.014-.912-.008-1.824-.008-2.777.55.21.781-.247,1.1-.5a.967.967,0,0,1,1.348.038q.541.526,1.085,1.047a.6.6,0,0,1,.076.918c-.275.332-.693.654-.749,1.026-.052.348.344.741.441,1.139.109.447.329.609.761.539a.439.439,0,0,1,.084,0c1.1.038,1.173.111,1.173,1.2,0,.477-.012.955,0,1.432a.5.5,0,0,1-.491.56c-.442.071-.982,0-1.3.23-.3.219-.368.757-.543,1.152-.057.127-.131.246-.2.373.288.381.565.763.858,1.131a.5.5,0,0,1-.043.743c-.464.467-.923.938-1.391,1.4a.52.52,0,0,1-.725.054c-.315-.226-.609-.483-.927-.7a2.194,2.194,0,0,0-.481-.176c0-.881-.014-1.831.013-2.78C145.319,104.775,145.5,104.614,145.618,104.427Z" transform="translate(-132.067 -86.404)" fill="#f68902"/>
    <path id="Path_573" data-name="Path 573" d="M18.118,104.279a4.24,4.24,0,0,1,.209-5.19.616.616,0,0,0,.173-.351c.014-.912.008-1.823.008-2.776-.55.21-.781-.247-1.1-.5a.967.967,0,0,0-1.348.038q-.541.526-1.085,1.048a.6.6,0,0,0-.076.918c.275.332.693.654.749,1.026.052.348-.344.741-.441,1.139-.109.447-.329.609-.761.539a.44.44,0,0,0-.084,0c-1.1.038-1.173.111-1.173,1.2,0,.477.012.955,0,1.432a.5.5,0,0,0,.491.56c.442.071.982,0,1.3.23.3.219.368.757.543,1.152.057.127.131.246.2.373-.288.381-.565.763-.858,1.131a.5.5,0,0,0,.043.743c.464.467.923.938,1.391,1.4a.52.52,0,0,0,.725.054c.315-.226.609-.483.927-.7a2.191,2.191,0,0,1,.481-.176c0-.881.014-1.831-.013-2.78C18.416,104.627,18.238,104.465,18.118,104.279Z" transform="translate(-11.161 -86.268)" fill="#0491d5"/>
    <path id="Path_574" data-name="Path 574" d="M93.032,2.7c-.749,0-.865.012-1.615.012a1.482,1.482,0,0,1,.645-1.407,1.628,1.628,0,0,1,1.779-.087,1.462,1.462,0,0,1,.751,1.494C94.283,2.7,93.032,2.7,93.032,2.7Z" transform="translate(-82.784 0)" fill="#f55050"/>
    <path id="Path_575" data-name="Path 575" d="M300,72.726V59.272h4.254l2.781,6.545,2.89-6.545h4.108V72.726h-3.109v-8.6l-2.454,5.545h-2.909l-2.454-5.581v8.636Z" transform="translate(-273.791 -53.359)" fill="#fff"/>
    <path id="Path_576" data-name="Path 576" d="M494.652,70.933a7.017,7.017,0,0,1-2.945-.582,6.387,6.387,0,0,1-2.127-1.582,7.186,7.186,0,0,1-1.273-2.236,7.793,7.793,0,0,1,0-5.036,6.965,6.965,0,0,1,1.273-2.218,6.184,6.184,0,0,1,2.127-1.564,6.834,6.834,0,0,1,2.945-.6,7.165,7.165,0,0,1,2.436.364,5.381,5.381,0,0,1,2.781,2.127,5.3,5.3,0,0,1,.618,1.182,5.231,5.231,0,0,1,.255.927l.073.364h-3.109l-.109-.327a2.386,2.386,0,0,0-.4-.745,2.447,2.447,0,0,0-.891-.764,3.389,3.389,0,0,0-1.618-.327,3.209,3.209,0,0,0-1.981.6,3.75,3.75,0,0,0-1.182,1.545,5.059,5.059,0,0,0-.382,1.945,5.2,5.2,0,0,0,.382,1.964,3.749,3.749,0,0,0,1.182,1.545,3.209,3.209,0,0,0,1.981.6,3.39,3.39,0,0,0,1.618-.327,2.536,2.536,0,0,0,.891-.745,2.387,2.387,0,0,0,.4-.745l.109-.327h3.109l-.073.364a5.85,5.85,0,0,1-.255.927,5.667,5.667,0,0,1-.618,1.2,5.382,5.382,0,0,1-2.781,2.127A7.513,7.513,0,0,1,494.652,70.933Z" transform="translate(-445.839 -51.385)" fill="#fff"/>
    <path id="Path_577" data-name="Path 577" d="M717.869,72.908a7.381,7.381,0,0,1-2.072-.291,5.275,5.275,0,0,1-1.8-.964,4.683,4.683,0,0,1-1.254-1.709,6.415,6.415,0,0,1-.454-2.545V59.272h3.145V67.4a2.865,2.865,0,0,0,.582,1.818,2.266,2.266,0,0,0,1.854.727,2.211,2.211,0,0,0,1.836-.727,2.808,2.808,0,0,0,.6-1.818V59.272h3.145V67.4a6.2,6.2,0,0,1-.473,2.545,4.421,4.421,0,0,1-1.254,1.709,5.083,5.083,0,0,1-1.781.964A7.382,7.382,0,0,1,717.869,72.908Z" transform="translate(-651.319 -53.359)" fill="#fff"/>
    <path id="Path_578" data-name="Path 578" d="M869.448,88.507a4.251,4.251,0,0,1-1.963-.382,2.553,2.553,0,0,1-1.036-.945,3.457,3.457,0,0,1-.418-1.164A6.956,6.956,0,0,1,865.94,85V81.162h-1.6V78.689h1.6V76.308h3.109v2.382h1.963v2.473h-1.963v3.745a1.265,1.265,0,0,0,.291.873,1.432,1.432,0,0,0,1.036.309,3.613,3.613,0,0,0,.545-.036l.236-.055v2.327l-.527.091A6.787,6.787,0,0,1,869.448,88.507Z" transform="translate(-790.551 -68.958)" fill="#fff"/>
    <path id="Path_579" data-name="Path 579" d="M967.137,53.454a1.749,1.749,0,0,1-1.291-.509,1.641,1.641,0,0,1-.509-1.2,1.683,1.683,0,0,1,.509-1.236,1.891,1.891,0,0,1,2.581,0,1.682,1.682,0,0,1,.509,1.236,1.64,1.64,0,0,1-.509,1.2A1.748,1.748,0,0,1,967.137,53.454Zm-1.563,10.781V54.6h3.109v9.636Z" transform="translate(-883.033 -44.869)" fill="#fff"/>
    <path id="Path_580" data-name="Path 580" d="M1033.4,68.777V54.96h3.108V68.777Z" transform="translate(-945.358 -49.41)" fill="#fff"/>
    <path id="Path_581" data-name="Path 581" d="M1097.938,112.4a5.573,5.573,0,0,1-2.055-.327,3.666,3.666,0,0,1-1.272-.818,3.826,3.826,0,0,1-.709-.982,3.976,3.976,0,0,1-.309-.818c-.048-.218-.073-.327-.073-.327h2.836s.018.055.054.164a2.525,2.525,0,0,0,.237.364,1.677,1.677,0,0,0,.527.364,2.435,2.435,0,0,0,.927.145,1.172,1.172,0,0,0,.927-.273.822.822,0,0,0,.218-.491q0-.545-.927-.727l-1.327-.236a7.1,7.1,0,0,1-1.636-.473,3.16,3.16,0,0,1-1.236-.909,2.317,2.317,0,0,1-.473-1.509,2.9,2.9,0,0,1,.455-1.6,3.268,3.268,0,0,1,1.345-1.127,5.013,5.013,0,0,1,2.145-.418,5.115,5.115,0,0,1,1.909.309,3.618,3.618,0,0,1,1.218.764,3.369,3.369,0,0,1,.672.909,3.891,3.891,0,0,1,.291.764l.073.309h-2.745l-.109-.218a1.233,1.233,0,0,0-.436-.436,1.649,1.649,0,0,0-.945-.218,1.173,1.173,0,0,0-.873.255.7.7,0,0,0-.237.491.526.526,0,0,0,.31.491,3.324,3.324,0,0,0,.781.236l1.218.236a5.52,5.52,0,0,1,2.345.964,2.293,2.293,0,0,1,.927,1.982,2.859,2.859,0,0,1-1.055,2.254A4.414,4.414,0,0,1,1097.938,112.4Z" transform="translate(-1000.409 -92.851)" fill="#fff"/>
  </g>
</svg>
